<?xml version="1.0" standalone="no"?><!DOCTYPE svg PUBLIC "-//W3C//DTD SVG 1.1//EN" "http://www.w3.org/Graphics/SVG/1.1/DTD/svg11.dtd"><svg t="1606294538236" class="icon" viewBox="0 0 1024 1024" version="1.1" xmlns="http://www.w3.org/2000/svg" p-id="7452" xmlns:xlink="http://www.w3.org/1999/xlink" width="200" height="200"><defs><style type="text/css"></style></defs><path d="M511.264243 70.25611c-244.22942 0-442.169585 197.940165-442.169585 442.169585s197.940165 442.169585 442.169585 442.169585c244.143463 0 442.169585-197.940165 442.169585-442.169585S755.407706 70.25611 511.264243 70.25611L511.264243 70.25611zM725.353203 474.945059l0 51.125401L571.975976 526.07046l0 102.337783 153.464207 0 0 51.125401L571.975976 679.533644l0 102.337783L469.638193 781.871427 469.638193 679.534667 316.173986 679.534667l0-51.125401 153.550165 0L469.724151 526.07046 316.173986 526.07046l0-51.125401 158.300352 0.604774L265.048585 270.355451l102.337783 0 153.464207 153.464207 153.464207-153.464207L776.652566 270.355451 584.930009 475.549833 725.353203 474.945059 725.353203 474.945059z" p-id="7453"></path></svg>