<?xml version="1.0" standalone="no"?><!DOCTYPE svg PUBLIC "-//W3C//DTD SVG 1.1//EN" "http://www.w3.org/Graphics/SVG/1.1/DTD/svg11.dtd"><svg t="1607503309543" class="icon" viewBox="0 0 1024 1024" version="1.1" xmlns="http://www.w3.org/2000/svg" p-id="3967" xmlns:xlink="http://www.w3.org/1999/xlink" width="200" height="200"><defs><style type="text/css"></style></defs><path d="M490.666667 170.666667v362.666666h362.666666l-0.085333 6.656v0.234667l-0.106667 4.757333c-0.192 6.336-0.554667 12.608-1.066666 18.837334l-0.213334 2.496A362.666667 362.666667 0 0 1 847.701333 597.333333C817.472 767.104 669.12 896 490.666667 896c-200.298667 0-362.666667-162.368-362.666667-362.666667 0-175.957333 125.290667-322.624 291.52-355.690666L426.666667 176.298667l0.789333-0.149334c6.506667-1.130667 13.098667-2.112 19.733333-2.901333l0.768-0.085333c3.050667-0.362667 6.122667-0.682667 9.173334-0.96l3.029333-0.277334A365.802667 365.802667 0 0 1 490.666667 170.666667z m-64 70.869333C292.48 270.826667 192 390.357333 192 533.333333c0 164.949333 133.717333 298.666667 298.666667 298.666667 142.976 0 262.485333-100.48 291.797333-234.666667H469.333333a42.666667 42.666667 0 0 1-42.666666-42.666666V241.536zM554.666667 469.333333V106.666667c3.221333 0 6.421333 0.042667 9.621333 0.128L554.666667 106.666667a369.344 369.344 0 0 1 64 5.632c149.013333 26.538667 266.517333 144.042667 293.034666 293.056l0.149334 0.768a362.709333 362.709333 0 0 1 5.333333 52.330666v0.469334l0.085333 3.52L917.333333 469.333333H554.666667z m64-291.797333V405.333333h227.797333A299.072 299.072 0 0 0 618.666667 177.536z" fill="#000000" p-id="3968"></path></svg>